<mxfile host="app.diagrams.net" modified="2023-03-13T17:17:40.269Z" agent="5.0 (Macintosh; Intel Mac OS X 10_15_7) AppleWebKit/605.1.15 (KHTML, like Gecko) Version/16.3 Safari/605.1.15" etag="ahCdF1SbbTdnerNukDuo" version="21.0.6" type="github">
  <diagram id="6a731a19-8d31-9384-78a2-239565b7b9f0" name="Page-1">
    <mxGraphModel dx="2195" dy="692" grid="1" gridSize="10" guides="1" tooltips="1" connect="1" arrows="1" fold="1" page="1" pageScale="1" pageWidth="1169" pageHeight="827" background="none" math="0" shadow="0">
      <root>
        <mxCell id="0" />
        <mxCell id="1" parent="0" />
        <mxCell id="1746" value="" style="edgeStyle=none;rounded=0;jumpStyle=none;html=1;shadow=0;labelBackgroundColor=none;startArrow=none;startFill=0;endArrow=classic;endFill=1;jettySize=auto;orthogonalLoop=1;strokeColor=#2F5B7C;strokeWidth=3;fontFamily=Helvetica;fontSize=16;fontColor=#23445D;spacing=5;" parent="1" source="1749" target="1771" edge="1">
          <mxGeometry relative="1" as="geometry" />
        </mxCell>
        <mxCell id="1749" value="Сайт" style="rounded=1;whiteSpace=wrap;html=1;shadow=0;labelBackgroundColor=none;strokeColor=none;strokeWidth=3;fillColor=#2F5B7C;fontFamily=Helvetica;fontSize=16;fontColor=#FFFFFF;align=center;fontStyle=1;spacing=5;arcSize=7;perimeterSpacing=2;" parent="1" vertex="1">
          <mxGeometry x="-250" y="500" width="150" height="70" as="geometry" />
        </mxCell>
        <mxCell id="lxM5387zmbxBGmxvKtqp-1787" value="" style="edgeStyle=orthogonalEdgeStyle;rounded=0;orthogonalLoop=1;jettySize=auto;html=1;" edge="1" parent="1" source="1771" target="lxM5387zmbxBGmxvKtqp-1786">
          <mxGeometry relative="1" as="geometry" />
        </mxCell>
        <mxCell id="1771" value="Создать диаграмму/план проекта" style="rounded=1;whiteSpace=wrap;html=1;shadow=0;labelBackgroundColor=none;strokeColor=none;strokeWidth=3;fillColor=#12aab5;fontFamily=Helvetica;fontSize=14;fontColor=#FFFFFF;align=center;spacing=5;fontStyle=1;arcSize=7;perimeterSpacing=2;" parent="1" vertex="1">
          <mxGeometry x="50" y="504.9999999999999" width="150" height="60" as="geometry" />
        </mxCell>
        <mxCell id="lxM5387zmbxBGmxvKtqp-1780" value="" style="edgeStyle=orthogonalEdgeStyle;rounded=0;orthogonalLoop=1;jettySize=auto;html=1;" edge="1" parent="1" source="1778" target="lxM5387zmbxBGmxvKtqp-1779">
          <mxGeometry relative="1" as="geometry" />
        </mxCell>
        <mxCell id="1778" value="Настроить (изменить файл settings)" style="rounded=1;whiteSpace=wrap;html=1;shadow=0;labelBackgroundColor=none;strokeColor=none;strokeWidth=3;fillColor=#61c6ce;fontFamily=Helvetica;fontSize=14;fontColor=#FFFFFF;align=center;spacing=5;fontStyle=0;arcSize=7;perimeterSpacing=2;" parent="1" vertex="1">
          <mxGeometry x="50" y="280" width="150" height="60" as="geometry" />
        </mxCell>
        <mxCell id="lxM5387zmbxBGmxvKtqp-1782" value="" style="edgeStyle=orthogonalEdgeStyle;rounded=0;orthogonalLoop=1;jettySize=auto;html=1;" edge="1" parent="1" source="lxM5387zmbxBGmxvKtqp-1779" target="lxM5387zmbxBGmxvKtqp-1781">
          <mxGeometry relative="1" as="geometry" />
        </mxCell>
        <mxCell id="lxM5387zmbxBGmxvKtqp-1779" value="Создать приложение" style="rounded=1;whiteSpace=wrap;html=1;shadow=0;labelBackgroundColor=none;strokeColor=none;strokeWidth=3;fillColor=#61c6ce;fontFamily=Helvetica;fontSize=14;fontColor=#FFFFFF;align=center;spacing=5;fontStyle=0;arcSize=7;perimeterSpacing=2;" vertex="1" parent="1">
          <mxGeometry x="50" y="140" width="150" height="60" as="geometry" />
        </mxCell>
        <mxCell id="lxM5387zmbxBGmxvKtqp-1785" value="" style="edgeStyle=orthogonalEdgeStyle;rounded=0;orthogonalLoop=1;jettySize=auto;html=1;" edge="1" parent="1" source="lxM5387zmbxBGmxvKtqp-1781" target="lxM5387zmbxBGmxvKtqp-1784">
          <mxGeometry relative="1" as="geometry" />
        </mxCell>
        <mxCell id="lxM5387zmbxBGmxvKtqp-1781" value="Добавить приложение в settings и в urls (главного и нового приложения)" style="rounded=1;whiteSpace=wrap;html=1;shadow=0;labelBackgroundColor=none;strokeColor=none;strokeWidth=3;fillColor=#61c6ce;fontFamily=Helvetica;fontSize=14;fontColor=#FFFFFF;align=center;spacing=5;fontStyle=0;arcSize=7;perimeterSpacing=2;" vertex="1" parent="1">
          <mxGeometry x="280" y="130" width="150" height="80" as="geometry" />
        </mxCell>
        <mxCell id="lxM5387zmbxBGmxvKtqp-1790" value="" style="edgeStyle=orthogonalEdgeStyle;rounded=0;orthogonalLoop=1;jettySize=auto;html=1;" edge="1" parent="1" source="lxM5387zmbxBGmxvKtqp-1784" target="lxM5387zmbxBGmxvKtqp-1789">
          <mxGeometry relative="1" as="geometry" />
        </mxCell>
        <mxCell id="lxM5387zmbxBGmxvKtqp-1784" value="Создать вьюшку и добавить её в urls приложения" style="rounded=1;whiteSpace=wrap;html=1;shadow=0;labelBackgroundColor=none;strokeColor=none;strokeWidth=3;fillColor=#61c6ce;fontFamily=Helvetica;fontSize=14;fontColor=#FFFFFF;align=center;spacing=5;fontStyle=0;arcSize=7;perimeterSpacing=2;" vertex="1" parent="1">
          <mxGeometry x="510" y="130" width="150" height="80" as="geometry" />
        </mxCell>
        <mxCell id="lxM5387zmbxBGmxvKtqp-1788" style="edgeStyle=orthogonalEdgeStyle;rounded=0;orthogonalLoop=1;jettySize=auto;html=1;" edge="1" parent="1" source="lxM5387zmbxBGmxvKtqp-1786" target="1778">
          <mxGeometry relative="1" as="geometry" />
        </mxCell>
        <mxCell id="lxM5387zmbxBGmxvKtqp-1786" value="Создать Django проект" style="rounded=1;whiteSpace=wrap;html=1;shadow=0;labelBackgroundColor=none;strokeColor=none;strokeWidth=3;fillColor=#12aab5;fontFamily=Helvetica;fontSize=14;fontColor=#FFFFFF;align=center;spacing=5;fontStyle=1;arcSize=7;perimeterSpacing=2;" vertex="1" parent="1">
          <mxGeometry x="50" y="379.9999999999999" width="150" height="60" as="geometry" />
        </mxCell>
        <mxCell id="lxM5387zmbxBGmxvKtqp-1792" value="" style="edgeStyle=orthogonalEdgeStyle;rounded=0;orthogonalLoop=1;jettySize=auto;html=1;" edge="1" parent="1" source="lxM5387zmbxBGmxvKtqp-1789" target="lxM5387zmbxBGmxvKtqp-1791">
          <mxGeometry relative="1" as="geometry" />
        </mxCell>
        <mxCell id="lxM5387zmbxBGmxvKtqp-1789" value="(При необходимости создать папку templates и static). В templates/static создать ещё одну папку, которая будет называться также как и приложение" style="rounded=1;whiteSpace=wrap;html=1;shadow=0;labelBackgroundColor=none;strokeColor=none;strokeWidth=3;fillColor=#61c6ce;fontFamily=Helvetica;fontSize=14;fontColor=#FFFFFF;align=center;spacing=5;fontStyle=0;arcSize=7;perimeterSpacing=2;" vertex="1" parent="1">
          <mxGeometry x="740" y="100" width="150" height="140" as="geometry" />
        </mxCell>
        <mxCell id="lxM5387zmbxBGmxvKtqp-1795" value="" style="edgeStyle=orthogonalEdgeStyle;rounded=0;orthogonalLoop=1;jettySize=auto;html=1;" edge="1" parent="1" source="lxM5387zmbxBGmxvKtqp-1791" target="lxM5387zmbxBGmxvKtqp-1794">
          <mxGeometry relative="1" as="geometry" />
        </mxCell>
        <mxCell id="lxM5387zmbxBGmxvKtqp-1791" value="Создать ветку, с названием как и название приложения" style="whiteSpace=wrap;html=1;fontSize=14;fillColor=#61c6ce;strokeColor=none;fontColor=#FFFFFF;rounded=1;shadow=0;labelBackgroundColor=none;strokeWidth=3;spacing=5;fontStyle=0;arcSize=7;" vertex="1" parent="1">
          <mxGeometry x="990" y="130" width="120" height="80" as="geometry" />
        </mxCell>
        <mxCell id="lxM5387zmbxBGmxvKtqp-1797" value="" style="edgeStyle=orthogonalEdgeStyle;rounded=0;orthogonalLoop=1;jettySize=auto;html=1;" edge="1" parent="1" source="lxM5387zmbxBGmxvKtqp-1794" target="lxM5387zmbxBGmxvKtqp-1796">
          <mxGeometry relative="1" as="geometry" />
        </mxCell>
        <mxCell id="lxM5387zmbxBGmxvKtqp-1794" value="В папке templates/НазваниеВашегоПриложения создать новый html файл" style="whiteSpace=wrap;html=1;fontSize=14;fillColor=#61c6ce;strokeColor=none;fontColor=#FFFFFF;rounded=1;shadow=0;labelBackgroundColor=none;strokeWidth=3;spacing=5;fontStyle=0;arcSize=7;" vertex="1" parent="1">
          <mxGeometry x="935" y="304" width="230" height="110" as="geometry" />
        </mxCell>
        <mxCell id="lxM5387zmbxBGmxvKtqp-1796" value="Создать модели в файле models.py (не забыть про магический метод __str__)" style="whiteSpace=wrap;html=1;fontSize=14;fillColor=#61c6ce;strokeColor=none;fontColor=#FFFFFF;rounded=1;shadow=0;labelBackgroundColor=none;strokeWidth=3;spacing=5;fontStyle=0;arcSize=7;" vertex="1" parent="1">
          <mxGeometry x="970" y="519" width="160" height="111" as="geometry" />
        </mxCell>
      </root>
    </mxGraphModel>
  </diagram>
</mxfile>
